<?xml version="1.0" encoding="iso-8859-1"?>
<!-- Uploaded to: SVG Repo, www.svgrepo.com, Generator: SVG Repo Mixer Tools -->
<svg version="1.1" id="Layer_1" xmlns="http://www.w3.org/2000/svg" xmlns:xlink="http://www.w3.org/1999/xlink" 
	 viewBox="0 0 512 512" xml:space="preserve">
<g>
	<rect x="279.621" y="315.896" style="fill:#B4E1FA;" width="74.055" height="125.204"/>
	<rect x="361.337" y="315.896" style="fill:#B4E1FA;" width="74.055" height="125.204"/>
	<polygon style="fill:#B4E1FA;" points="361.337,197.196 361.337,267.677 435.392,267.677 435.392,231.755 	"/>
	<polygon style="fill:#B4E1FA;" points="279.621,267.677 353.676,267.677 353.676,193.63 279.621,159.07 	"/>
	<rect x="157.264" y="315.896" style="fill:#B4E1FA;" width="73.838" height="125.204"/>
	<rect x="75.753" y="315.896" style="fill:#B4E1FA;" width="73.851" height="125.204"/>
	<polygon style="fill:#B4E1FA;" points="75.753,267.677 149.604,267.677 149.604,150.041 75.753,191.52 	"/>
	<polygon style="fill:#B4E1FA;" points="157.264,145.734 157.264,267.677 231.102,267.677 231.102,136.429 199.819,121.832 	"/>
</g>
<path style="fill:#DEC3A1;" d="M193.805,71.692L34.78,161.017v3.736c0,0.152,0.004,0.298,0.013,0.452V481.81H475.93V203.346
	L193.805,71.692z M238.763,444.936c0,2.112-1.719,3.83-3.83,3.83H71.923c-2.112,0-3.83-1.719-3.83-3.83V312.072
	c0-2.112,1.719-3.83,3.83-3.83h163.01c2.112,0,3.83,1.719,3.83,3.83V444.936z M238.763,271.507c0,2.112-1.719,3.83-3.83,3.83H71.923
	c-2.112,0-3.83-1.719-3.83-3.83v-81.19l0.013-0.052l-0.001-0.901c-0.031-1.421,0.719-2.735,1.954-3.43l126.096-70.827
	c-0.049,0.027-0.096,0.054-0.092,0.054c0.001,0,0.749-0.349,0.749-0.349l0.516-0.382c0.661-0.489,1.477-0.758,2.298-0.758
	c0.558,0,1.103,0.121,1.608,0.355l35.085,16.375l0.12,0.072l0.306,0.143l0.094,0.055l0.094,0.068l0.167,0.098l0.227,0.166
	l0.312,0.282l0.226,0.25l0.082,0.101l0.16,0.241l0.045,0.055l0.084,0.135c0,0,0.087,0.156,0.114,0.204
	c0.02,0.045,0.148,0.335,0.148,0.335c0.011,0.031,0.098,0.276,0.098,0.276l0.096,0.411l0.059,0.46c0,0.139,0.004,0.278,0.013,0.419
	L238.763,271.507L238.763,271.507z M443.052,444.936c0,2.112-1.719,3.83-3.83,3.83H275.791c-2.112,0-3.83-1.719-3.83-3.83V312.072
	c0-2.112,1.719-3.83,3.83-3.83h163.431c2.112,0,3.83,1.719,3.83,3.83V444.936z M443.052,271.507c0,2.112-1.719,3.83-3.83,3.83
	H275.791c-2.112,0-3.83-1.719-3.83-3.83V153.403c0-2.08,1.754-3.836,3.833-3.836l0.365,0.01l0.38-0.013
	c0.541,0,1.092,0.124,1.608,0.366l162.701,75.924c1.339,0.622,2.205,1.983,2.205,3.467V271.507z"/>
<path style="fill:#5B5D6E;" d="M455.603,81.365h-53.09v33.7c-0.008,0.151-0.013,0.305-0.013,0.467v4.067l53.102,24.778V81.365z"/>
<path style="fill:#707487;" d="M193.805,30.668L14.045,131.638v32.238l177.732-99.827c0.562-0.317,1.212-0.483,1.877-0.483
	c0.564,0,1.107,0.116,1.616,0.359l301.408,140.653v-32.578L193.805,30.668z"/>
<path d="M510.723,169.554v41.037c0,3.486-1.788,6.742-4.724,8.606c-1.673,1.073-3.575,1.609-5.49,1.609
	c-1.468,0-2.949-0.319-4.316-0.958l-6.218-2.911v258.49h11.81c5.643,0,10.214,4.571,10.214,10.214
	c0,5.631-4.571,10.214-10.214,10.214h-22.025H30.963H10.636c-5.631,0-10.214-4.584-10.214-10.214
	c0-5.643,4.584-10.214,10.214-10.214h10.112V176.219l-5.529,3.115c-3.166,1.775-7.035,1.736-10.163-0.102
	C1.928,177.407,0,174.049,0,170.422v-41.024c0-3.703,1.992-7.099,5.209-8.912L188.648,17.461c2.873-1.622,6.333-1.749,9.321-0.358
	l190.5,88.904V77.535c0-5.643,4.571-10.214,10.214-10.214h60.751c5.644,0,10.214,4.571,10.214,10.214v66.356l35.176,16.407
	C508.425,161.983,510.723,165.583,510.723,169.554z M490.294,194.554v-18.488L194.075,37.839L20.429,135.374v17.594l168.219-94.484
	c1.545-0.868,3.269-1.302,5.005-1.302c1.468,0,2.949,0.306,4.316,0.958L490.294,194.554z M469.546,475.426V207.412L194.075,78.863
	L41.164,164.753c0,0.115,0.013,0.217,0.013,0.332v310.341L469.546,475.426L469.546,475.426z M449.219,134.353V87.749h-40.322v27.426
	c0,0.115-0.013,0.23-0.013,0.358L449.219,134.353z"/>
<path d="M449.436,312.072v132.865c0,5.644-4.571,10.214-10.214,10.214H275.791c-5.643,0-10.214-4.571-10.214-10.214V312.072
	c0-5.643,4.571-10.214,10.214-10.214h163.431C444.865,301.857,449.436,306.428,449.436,312.072z M429.008,434.722V322.286h-61.287
	v112.436H429.008z M347.292,434.722V322.286h-61.287v112.436H347.292z"/>
<path d="M449.436,229.322v42.186c0,5.631-4.571,10.214-10.214,10.214H275.791c-5.643,0-10.214-4.584-10.214-10.214V153.403
	c0-5.758,4.814-10.406,10.559-10.214c1.57-0.064,3.192,0.243,4.711,0.958l162.691,75.919
	C447.138,221.737,449.436,225.351,449.436,229.322z M429.008,261.293v-25.472l-61.287-28.6v54.073L429.008,261.293L429.008,261.293z
	 M347.292,261.293v-63.598l-61.287-28.6v92.198L347.292,261.293L347.292,261.293z"/>
<path d="M245.147,312.072v132.865c0,5.644-4.571,10.214-10.214,10.214H71.923c-5.631,0-10.214-4.571-10.214-10.214V312.072
	c0-5.643,4.584-10.214,10.214-10.214h163.01C240.576,301.857,245.147,306.428,245.147,312.072z M224.718,434.722V322.286h-61.07
	v112.436H224.718z M143.22,434.722V322.286H82.137v112.436H143.22z"/>
<path d="M245.147,133.982v137.525c0,5.631-4.571,10.214-10.214,10.214H71.923c-5.631,0-10.214-4.584-10.214-10.214v-81.933
	c0-0.026,0.013-0.051,0.013-0.077c-0.077-3.652,1.8-7.214,5.209-9.129l126.046-70.799c0.179-0.102,0.358-0.179,0.549-0.268
	c2.911-2.158,6.882-2.694,10.406-1.06l35.317,16.484c0.077,0.038,0.14,0.077,0.204,0.115c0.192,0.089,0.383,0.192,0.562,0.294
	c0.128,0.077,0.255,0.153,0.37,0.23c0.153,0.089,0.306,0.192,0.447,0.294c0.14,0.102,0.281,0.204,0.421,0.306
	c0.115,0.089,0.23,0.192,0.332,0.281c0.153,0.128,0.294,0.255,0.421,0.383c0.102,0.102,0.204,0.192,0.294,0.294
	c0.128,0.14,0.255,0.281,0.383,0.421c0.089,0.115,0.179,0.217,0.268,0.332c0.115,0.14,0.217,0.281,0.319,0.434
	c0.102,0.128,0.192,0.268,0.268,0.396c0.089,0.14,0.166,0.268,0.255,0.409c0.089,0.153,0.166,0.319,0.255,0.472
	c0.064,0.128,0.115,0.255,0.179,0.383c0.077,0.179,0.153,0.357,0.23,0.536c0.038,0.128,0.089,0.243,0.128,0.37
	c0.064,0.179,0.128,0.37,0.179,0.562c0.038,0.14,0.077,0.268,0.102,0.409c0.038,0.179,0.077,0.345,0.115,0.523
	c0.026,0.166,0.051,0.345,0.077,0.511c0.013,0.153,0.038,0.294,0.051,0.447c0.013,0.204,0.026,0.409,0.026,0.626
	C245.134,133.829,245.147,133.906,245.147,133.982z M224.718,261.293V140.494l-24.63-11.491l-36.44,20.467v111.823H224.718z
	 M143.22,261.293V160.949l-61.082,34.308v66.037H143.22z"/>
</svg>