<?xml version="1.0" encoding="iso-8859-1"?>
<!-- Uploaded to: SVG Repo, www.svgrepo.com, Generator: SVG Repo Mixer Tools -->
<svg height="800px" width="800px" version="1.1" id="Capa_1" xmlns="http://www.w3.org/2000/svg" xmlns:xlink="http://www.w3.org/1999/xlink" 
	 viewBox="0 0 310.038 310.038" xml:space="preserve">
<g>
	<g>
		<g>
			<path style="fill:#010002;" d="M80.988,61.135c0.06,0.234,0.092,0.549,0.136,0.903l0.033,0.272
				c0.228,1.784,0.5,4.003,1.719,4.873c1.958,1.496,5.912-1.148,8.376-2.845l0.522-0.354c0.332-0.223,0.609-0.419,0.843-0.555
				c7.653-4.591,16.72-8.784,26.934-12.483c1.615-0.577,3.225-1.164,4.841-1.768l2.132-0.772c9.616-3.552,19.553-7.234,29.888-9.584
				c13.951-3.214,29.104-4.645,49.109-4.645c4.966,0,10.03,0.435,14.908,0.859l0.881,0.071c1.67,0.152,3.334,0.305,5.004,0.419
				c0.549,0.049,1.534,0.114,2.545,0.114c2.388,0,3.508-0.321,3.764-1.093c0.196-0.593-0.245-1.251-1.322-2.04
				c-5.086-3.699-11.449-6.598-17.062-9.165c-17.003-7.729-36.045-12.135-56.577-13.086c-2.894-0.147-5.325-0.212-7.647-0.212
				c-10.378,0-18.139,1.479-23.725,4.504c-11.814,6.396-22.42,12.265-32.433,19.129c-0.794,0.538-1.719,1.093-2.676,1.675
				l-0.234,0.141c-3.394,2.056-7.185,4.357-8.936,7.234c-3.318,5.385-2.072,12.428-1.077,18.085L80.988,61.135z"/>
		</g>
		<g>
			<path style="fill:#010002;" d="M39.112,95.488c9.203,33.711,33.706,67.2,68.989,94.275c6.728,5.183,14.218,10.133,22.926,15.148
				c0.723,0.413,1.496,0.887,2.29,1.387c2.807,1.74,5.765,3.584,8.545,4.259c2.219,0.549,3.247-1.044,3.873-2.845
				c0.685-2.089,1.289-4.199,1.882-6.326l0.816-2.899c2.807-9.97,4.705-19.744,5.635-29.066l0.218-1.817
				c0.441-3.633,0.941-7.669-0.065-11.123c-0.707-2.382-3.601-3.987-6.146-5.401c-0.974-0.533-1.817-0.995-2.491-1.463
				c-2.834-1.969-5.716-3.873-8.615-5.771c-4.884-3.214-10.416-6.859-15.463-10.78c-6.037-4.667-11.389-8.936-15.969-13.962
				c-9.246-10.013-16.769-22.779-23.747-40.162c-2.943-7.5-4.781-15.795-5.646-25.379c-0.054-0.451-0.022-1.126,0.016-1.915
				l0.016-0.419c0.158-2.812,0.354-6.293-1.441-7.071c-0.859-0.386-2.121-0.577-3.655-0.577c-2.692,0-5.706,0.593-7.636,1.142
				c-7.887,2.279-14.093,10.427-19.075,16.97c-0.664,0.876-1.311,1.708-1.953,2.529l-1.365,1.702
				c-1.833,2.252-3.905,4.792-4.471,7.604c-1.463,7.011,0.408,14,2.219,20.766L39.112,95.488z"/>
		</g>
		<g>
			<path style="fill:#010002;" d="M226.934,78.034c-22.099,0-45.84,5.031-68.641,14.549c-12.031,5.004-25.498,10.612-37.796,17.177
				c-0.957,0.522-2.04,0.995-3.149,1.485l-0.305,0.131c-2.317,1.012-4.656,2.029-6.326,3.503c-0.49,0.419-0.751,0.93-0.789,1.561
				c-0.065,0.778,0.256,1.637,0.843,2.306c2.573,2.856,5.803,5.216,8.92,7.5c1.039,0.756,2.056,1.512,3.057,2.268l0.751,0.571
				c6.761,5.151,13.108,9.997,20.173,14.43c0.778,0.5,1.632,1.164,2.545,1.882l0.337,0.256c2.921,2.301,6.222,4.884,9.453,4.999
				c1.909,0,4.052-1.246,5.939-2.35c0.963-0.555,1.762-1.017,2.513-1.343l2.758-1.213c5.423-2.393,11.574-5.096,17.606-7.348
				c17.258-6.38,35.751-9.741,54.956-9.992l1.387-0.005c11.776,0,24.182,2.284,34.038,6.26c3.628,1.485,6.712,3.013,9.453,4.694
				l0.571,0.343c1.12,0.707,2.73,1.474,3.905,0.838c1.044-0.538,1.398-1.648,1.719-2.627l0.136-0.441
				c0.761-2.366,1.365-4.863,1.915-7.854c1.8-9.317,0.049-16.703-3.595-26.314c-0.234-0.587-0.457-1.229-0.691-1.904
				c-0.914-2.605-1.958-5.548-4.019-7.321c-10.813-9.48-25.455-12.722-37.007-14.495C240.967,78.546,234.021,78.034,226.934,78.034z
				"/>
		</g>
		<g>
			<path style="fill:#010002;" d="M113.66,266.133l0.457-0.446c1.751-1.692,3.242-3.334,2.355-5.227
				c-0.413-0.925-1.43-1.474-2.317-1.974l-0.538-0.315c-1.251-0.767-2.475-1.512-3.699-2.257l-2.692-1.659
				c-7.691-4.623-14.925-9.518-21.484-14.544c-18.923-14.522-36.583-33.14-51.062-53.814c-6.472-9.208-11.433-17.546-15.142-25.466
				l-1.36-3.117c-0.843-1.898-1.681-3.802-2.556-5.646l-0.267-0.642c-0.419-1.028-0.925-2.284-1.898-2.877
				c-0.218-0.125-0.468-0.201-0.702-0.201c-0.892,0-1.327,0.903-1.479,3.1c-0.136,2.763,0,5.608,0.169,8.501l0.065,1.246
				c0.669,12.581,2.948,24.802,6.777,36.306c4.547,13.69,10.084,25.341,16.926,35.631l1.43,2.17
				c1.882,2.894,3.829,5.852,6.206,8.311c11.041,11.574,26.602,19.124,38.933,24.405c1.751,0.767,3.519,1.643,5.298,2.535
				c3.59,1.795,7.288,3.644,11.161,4.569c1.931,0.43,3.753-0.386,5.733-1.436C107.639,271.295,110.875,268.902,113.66,266.133z"/>
		</g>
		<g>
			<path style="fill:#010002;" d="M215.55,38.694c-4.705-0.37-9.507-0.549-14.267-0.549c-26.673,0-53.417,5.591-81.744,17.138
				c-8.387,3.394-17.878,7.25-26.374,12.537c-0.593,0.37-1.354,0.729-2.148,1.11l-0.332,0.158c-2.029,0.946-4.324,2.034-5.401,3.552
				c-1.447,2.105,0.354,5.988,1.534,8.55c0.321,0.723,0.609,1.365,0.816,1.898c2.709,7.109,6.63,14.31,11.667,21.43
				c0.441,0.593,0.887,1.284,1.343,1.996c1.12,1.735,2.371,3.682,3.9,4.83c1.458,1.175,3.443,0.332,4.993-0.538
				c0.267-0.163,0.538-0.305,0.778-0.435c4.324-2.121,8.675-4.324,12.918-6.527c3.628-1.871,7.43-3.47,11.101-5.031l1.131-0.479
				c1.556-0.653,3.106-1.322,4.645-2.002c13.783-6.162,25.553-11.068,38.204-14.908c16.236-4.873,32.536-7.348,48.451-7.348
				c8.284,0,16.442,0.691,24.226,2.04c7.772,1.338,14.593,3.122,20.255,5.276c0.212,0.082,0.517,0.228,0.903,0.402l-0.169,1.11
				l0.457-0.979c1.403,0.653,3.329,1.534,4.656,1.534c0.723,0,1.115-0.272,1.316-0.5c0.674-0.767,0.343-1.681-0.354-2.828
				l-0.207-0.332c-1.186-1.964-2.518-4.03-4.319-6.723c-7.332-10.992-14.821-19.679-22.3-25.819
				c-8.474-6.946-20.179-7.626-30.524-8.229C218.971,38.927,217.236,38.824,215.55,38.694z"/>
		</g>
		<g>
			<path style="fill:#010002;" d="M86.318,235.153c7.185,5.678,14.756,10.541,23.192,15.871c0.745,0.462,1.599,1.071,2.491,1.713
				c2.545,1.833,5.396,3.878,7.827,4.253c0.12,0.022,0.272,0.038,0.402,0.038c2.709,0,5.167-4.047,6.63-6.467l0.691-1.115
				c4.922-7.767,8.561-16.192,11.863-24.144c0.201-0.5,0.5-1.115,0.838-1.784c1.18-2.448,2.66-5.499,1.577-7.658
				c-0.528-1.033-1.67-1.577-2.692-2.051c-0.288-0.125-0.555-0.256-0.821-0.402l-1.931-1.012c-2.061-1.077-4.155-2.17-6.222-3.318
				c-8.023-4.4-16.339-9.91-25.406-16.834c-24.389-18.656-44.785-42.24-57.409-66.444c-5.336-10.193-9.589-20.679-12.635-31.177
				c-0.772-2.573-1.251-5.075-1.833-8.072L32.803,86.1c-0.136-1.191-0.375-2.426-1.43-2.796c-0.131-0.038-0.299-0.065-0.451-0.065
				c-1.142,0-1.838,1.164-2.497,2.469c-1.474,2.709-2.888,5.635-4.493,9.219c-4.036,9.034-7.18,18.645-9.35,28.582l-0.381,1.67
				c-0.87,3.617-1.833,7.718-0.669,11.281C25.041,171.853,50.888,206.897,86.318,235.153z"/>
		</g>
		<g>
			<path style="fill:#010002;" d="M292.497,175.171c-0.109-0.908-0.218-1.811-0.299-2.703c-0.789-7.321-1.953-14.071-3.443-20.054
				l-0.239-0.963c-0.587-2.371-1.3-5.303-3.465-6.962c-3.002-2.219-6.826-4.166-12.053-6.124l-0.615-0.239
				c-0.74-0.315-1.811-0.658-2.801-0.658c-0.674,0-1.197,0.163-1.566,0.5c-1.316,1.213-1.126,4.221-0.984,6.641l0.038,0.642
				c0.022,0.566,0.038,1.066,0.016,1.463c-0.343,8.061-1.028,15.654-2.099,23.214l-0.12,0.876
				c-1.719,12.303-3.519,25.02-6.783,37.274c-3.04,11.525-7.87,24.013-14.375,37.132c-4.727,9.567-11.542,18.357-18.699,27.266
				c-0.664,0.832-1.343,1.659-2.018,2.486l-0.359,0.441c-0.859,1.05-1.708,2.105-2.573,3.198c-1.615,2.127-0.702,2.823-0.31,3.117
				c0.587,0.419,1.849-0.038,2.638-0.484l0.321-0.174c2.094-1.093,4.134-2.268,6.157-3.427l0.299-0.174
				c10.568-6.347,18.901-12.602,25.46-19.113c16.208-16.214,36.061-41.549,38.59-70.169c0.375-4.019-0.141-8.235-0.631-12.319
				L292.497,175.171z"/>
		</g>
		<g>
			<path style="fill:#010002;" d="M155.019,0C69.408,0,0,69.408,0,155.019s69.408,155.019,155.019,155.019
				s155.019-69.408,155.019-155.019C310.038,58.437,227.462,0,155.019,0z M250.561,268.146
				c-26.026,22.023-59.672,34.141-94.748,34.141h-0.005h-0.033c-35.354,0-69.337-12.249-95.646-34.484
				c-26.407-22.316-44.481-52.666-50.904-85.459c-5.178-26.613-2.97-55.043,6.19-80.041c14.99-40.771,48.984-74.575,88.738-88.243
				c18.031-6.233,36.202-9.121,54.032-8.648c27.663,0.772,53.988,8.762,76.109,23.094c6.451,4.194,11.966,8.947,17.818,13.968
				c2.181,1.893,4.313,3.726,6.511,5.542c9.23,7.729,18.167,19.314,26.521,34.435c22.877,41.217,24.644,93.035,4.629,135.226
				C280.721,236.719,267.161,254.173,250.561,268.146z"/>
		</g>
		<g>
			<path style="fill:#010002;" d="M170.003,278.562c16.339-20.451,27.467-41.816,33.075-63.517c2.219-8.55,3.65-17.024,5.015-25.689
				c2.176-13.81,2.991-27.201,3.552-39.613c0.201-3.492,0.223-6.755,0.082-9.709l-0.038-0.468c-0.103-1.43-0.261-2.654-1.392-3.329
				c-0.343-0.179-0.87-0.288-1.501-0.288c-0.587,0-1.278,0.098-2.029,0.283l-4.922,1.229c-1.246,0.321-2.491,0.625-3.731,0.946
				c-8.104,2.04-15.8,5.428-23.263,8.713c-1.55,0.674-3.084,1.349-4.65,2.029c-0.767,0.337-1.702,0.674-2.709,1.033
				c-3.03,1.088-6.418,2.29-7.957,4.422c-1.262,1.724-1.099,4.417-0.968,6.777c0.076,1.023,0.136,1.898,0.103,2.649
				c-0.343,6.783-1.256,13.581-2.638,19.657c-4.727,20.712-11.253,44.693-23.79,65.584c-5.118,8.528-11.64,16.317-18.351,21.936
				c-2.393,2.023-4.933,3.758-7.772,5.325c-0.223,0.125-0.495,0.272-0.789,0.408c-1.077,0.522-2.404,1.175-2.856,2.48
				c-0.408,1.452,0.435,2.611,1.262,3.742c1.882,2.486,4.074,5.265,6.549,6.891c2.192,1.36,5.096,2.023,7.653,2.605l1.681,0.386
				c6.929,1.768,13.94,3.078,20.848,3.889c0.658,0.076,1.382,0.179,2.132,0.294c3.182,0.468,6.712,0.74,8.8-0.158
				c6.456-2.785,11.64-9.497,16.203-15.42C168.453,280.536,169.236,279.514,170.003,278.562z"/>
		</g>
		<g>
			<path style="fill:#010002;" d="M239.411,244.736c11.525-21.642,16.741-45.22,20.005-63.338
				c2.312-12.945,3.552-24.247,3.786-34.533c0-0.441,0.044-1.012,0.098-1.637l0.027-0.315c0.256-3.285,0.647-8.257-1.909-9.801
				c-1.898-1.05-4.612-1.3-7.022-1.528l-0.343-0.033c-0.626-0.065-1.229-0.12-1.789-0.196c-4.019-0.528-7.854-0.772-12.091-0.772
				c-3.835,0-8.104,0.212-13.043,0.642c-0.533,0.033-1.202,0.033-1.931,0.033c-3.541,0.005-7.713,0.016-9.165,2.099
				c-1.159,1.779-0.881,5.151-0.625,8.142c0.076,1.012,0.141,1.925,0.141,2.654c0,8.958-0.375,17.568-1.148,25.596
				c-2.426,24.144-6.641,52.041-19.466,75.859c-8.333,15.458-16.769,27.875-25.776,37.959l-2.975,3.231
				c-1.382,1.512-2.774,3.019-4.068,4.542c-0.8,0.887-1.583,1.871-1.49,2.817c0.038,0.402,0.272,0.783,0.642,1.061
				c0.522,0.375,1.376,0.577,2.529,0.577c1.409,0,3.062-0.277,4.4-0.5c0.778-0.125,1.376-0.223,1.849-0.267
				c8.159-0.849,16.486-2.486,24.742-4.83l1.648-0.435c2.736-0.723,5.733-1.528,8.055-2.943c1.887-1.142,3.367-2.768,4.808-4.324
				c0.538-0.609,1.05-1.159,1.566-1.681c4.324-4.444,8.507-9.317,13.201-15.344C229.556,260.411,235.212,252.759,239.411,244.736z"
				/>
		</g>
	</g>
</g>
</svg>