<?xml version="1.0" encoding="iso-8859-1"?>
<!-- Uploaded to: SVG Repo, www.svgrepo.com, Generator: SVG Repo Mixer Tools -->
<svg height="800px" width="800px" version="1.1" id="Layer_1" xmlns="http://www.w3.org/2000/svg" xmlns:xlink="http://www.w3.org/1999/xlink" 
	 viewBox="0 0 512 512" xml:space="preserve">
<path style="fill:#DDB92E;" d="M198.452,226.451L198.452,226.451c-24.176,24.177-63.375,24.177-87.553,0l-99.956-99.956
	l87.553-87.553l99.956,99.956C222.629,163.076,222.629,202.273,198.452,226.451z"/>
<path style="fill:#F9D85C;" d="M198.455,226.446h-0.01L54.723,82.724l43.77-43.78l99.962,99.952
	C222.631,163.072,222.631,202.27,198.455,226.446z"/>
<path style="fill:#37A0BD;" d="M415.605,426.823l-16.781,16.78L133.152,177.932c-4.634-4.634-4.634-12.147,0-16.78l0,0
	c4.634-4.634,12.147-4.634,16.78,0L415.605,426.823z"/>
<path style="fill:#64C1DF;" d="M149.933,161.151l139.998,139.998l-16.78,16.78L133.153,177.932c-4.633-4.633-4.633-12.148,0-16.78
	c2.321-2.321,5.355-3.473,8.391-3.473C144.578,157.678,147.614,158.831,149.933,161.151z"/>
<g>
	<path style="fill:#DDB92E;" d="M444.79,431.2l-41.587,41.587c-4.634,4.634-12.147,4.634-16.78,0l0,0
		c-4.634-4.634-4.634-12.147,0-16.78l41.587-41.587c4.634-4.634,12.147-4.634,16.78,0l0,0
		C449.424,419.054,449.424,426.566,444.79,431.2z"/>
	<path style="fill:#DDB92E;" d="M313.548,226.451L313.548,226.451c-24.177-24.177-24.177-63.375,0-87.553l99.956-99.956
		l87.553,87.553l-99.956,99.956C376.923,250.627,337.724,250.627,313.548,226.451z"/>
</g>
<path style="fill:#F9D85C;" d="M457.286,82.724L313.554,226.446h-0.01c-24.175-24.175-24.175-63.374,0-87.55l99.962-99.952
	L457.286,82.724z"/>
<path style="fill:#37A0BD;" d="M113.176,443.604l-16.78-16.78l265.672-265.672c4.634-4.634,12.147-4.634,16.78,0l0,0
	c4.634,4.634,4.634,12.147,0,16.781L113.176,443.604z"/>
<path style="fill:#64C1DF;" d="M378.847,177.932L238.85,317.93l-16.781-16.78l139.998-139.998c4.633-4.633,12.148-4.633,16.78,0
	c2.321,2.321,3.473,5.355,3.473,8.391C382.32,172.577,381.168,175.612,378.847,177.932z"/>
<path style="fill:#DDB92E;" d="M108.798,472.788L67.21,431.201c-4.634-4.634-4.634-12.147,0-16.78l0,0
	c4.634-4.634,12.147-4.634,16.78,0l41.587,41.587c4.634,4.634,4.634,12.147,0,16.78l0,0
	C120.945,477.422,113.432,477.422,108.798,472.788z"/>
<path d="M436.399,403.206c-5.237,0-10.161,2.04-13.862,5.741l-6.932,6.932L283.733,284.005l21.721-21.723l4.962,4.962L321.36,256.3
	l-4.963-4.963l7.538-7.539c10.419,5.703,21.89,8.511,33.32,8.511c17.993-0.001,35.87-6.936,49.321-20.387L512,126.49l-98.493-98.493
	L308.071,133.432c-21.999,22-26.562,55.829-11.877,82.648l-7.527,7.527l-4.968-4.968l-10.944,10.944l4.968,4.968L256,256.273
	l-22.239-22.239l4.968-4.968l-10.944-10.944l-4.968,4.968l-7.011-7.011c14.685-26.819,10.122-60.647-11.877-82.648L98.493,27.997
	L0,126.49l105.424,105.434c13.452,13.453,31.326,20.387,49.321,20.387c11.43,0,22.906-2.812,33.327-8.516l7.021,7.021l-4.968,4.968
	l10.944,10.944l4.968-4.968l22.244,22.244L96.395,415.88l-6.932-6.932c-3.702-3.703-8.625-5.742-13.863-5.742
	c-5.236,0-10.16,2.04-13.862,5.741c-3.702,3.703-5.741,8.626-5.741,13.863s2.04,10.16,5.741,13.863l41.587,41.587
	c3.703,3.702,8.626,5.742,13.863,5.742c5.236,0,10.16-2.04,13.862-5.742c3.702-3.703,5.741-8.626,5.741-13.862
	c0-5.236-2.04-10.16-5.741-13.863l-6.929-6.929l131.88-131.879L387.88,443.605l-6.931,6.931c-3.702,3.703-5.741,8.626-5.741,13.863
	c0,5.236,2.04,10.16,5.741,13.862c3.703,3.702,8.626,5.742,13.863,5.742c5.236,0,10.16-2.04,13.863-5.742l41.587-41.587
	c3.702-3.703,5.741-8.626,5.741-13.863s-2.04-10.16-5.741-13.862C446.559,405.245,441.635,403.206,436.399,403.206z
	 M319.017,144.375l94.491-94.491l76.605,76.605l-94.48,94.491c-16,16.001-40.05,20.148-60.158,11.279l48.857-48.863
	c3.697-3.714,5.733-8.634,5.733-13.859c0-5.234-2.04-10.158-5.743-13.862c-7.644-7.641-20.078-7.641-27.722,0l-48.861,48.862
	C298.865,184.431,303.011,160.381,319.017,144.375z M367.542,166.621c1.609-1.609,4.227-1.609,5.833,0
	c0.781,0.78,1.211,1.817,1.211,2.917c0,1.103-0.434,2.146-1.211,2.926l-67.922,67.928l-5.841-5.841L367.542,166.621z
	 M288.667,245.497l5.841,5.841l-21.721,21.723l-5.842-5.842L288.667,245.497z M116.368,220.98l-94.48-94.491l76.605-76.605
	l94.491,94.489c16.006,16.007,20.151,40.056,11.28,60.162l-48.857-48.857c-7.644-7.644-20.082-7.644-27.726,0
	c-3.702,3.703-5.741,8.626-5.741,13.863c0,5.236,2.039,10.16,5.741,13.862l48.852,48.852
	C156.421,241.129,132.369,236.984,116.368,220.98z M138.624,172.459c-0.779-0.779-1.208-1.815-1.208-2.917s0.429-2.139,1.209-2.918
	c0.804-0.805,1.861-1.207,2.918-1.207c1.057,0,2.114,0.402,2.918,1.207l67.412,67.412l-5.837,5.836L138.624,172.459z
	 M120.106,461.479c1.61,1.61,1.61,4.227,0,5.836c-1.609,1.61-4.228,1.61-5.836,0l-41.587-41.587c-1.61-1.61-1.61-4.227,0-5.837
	c0.779-0.779,1.816-1.208,2.917-1.208c1.102,0,2.139,0.429,2.918,1.209l23.934,23.934l10.722,10.728l0.003-0.003L120.106,461.479z
	 M113.178,432.662l-0.25-0.25l-5.586-5.589l131.882-131.874l5.833,5.833L113.178,432.662z M216.981,250.817l5.836-5.837
	L404.66,426.822l-5.837,5.837L216.981,250.817z M439.317,425.728l-41.587,41.587c-1.609,1.61-4.228,1.61-5.836,0
	c-1.61-1.61-1.61-4.227,0-5.836l41.588-41.588c0.779-0.779,1.816-1.208,2.918-1.208c1.101,0,2.138,0.429,2.917,1.209
	C440.925,421.501,440.925,424.119,439.317,425.728z"/>
</svg>